# xmcd
#
# Track frame offsets:
#	150
#	14322
#	29540
#	49297
#	67050
#	79442
#	97095
#	110047
#	125702
#	142432
#	157457
#	176267
#	198012
#
# Disc length: 2812
#
# Revision: 2
# Processed by: cddbd v1.5.1PL0 Copyright (c) Steve Scherf et al.
# Submitted via: audiograbber 1.80
# Normalized: r1:DSETVAR2
#
DISCID=cc0afa0d
DTITLE=Various Artist - The Best Of Country
DYEAR=1900
DGENRE=
TTITLE0=The Kentucky Head Hunters - Oh, Lonesome Me
TTITLE1=Billy Ray Cyrus - Achy Break Heart
TTITLE2=Carl Perkins, Jerry Lee Lewis, Roy Orbison and Johnny Cash - Birth Of Rock And Roll
TTITLE3=Jacky Ward - That's The Way A Cowboy Rocks And Roll
TTITLE4=Johnny Cash, Rosanne Cash and The Everly Brothers - Ballad Of A Teeneage Queen
TTITLE5=Kim Richey - Those Words We Said
TTITLE6=Sammy Kershaw - She Don't Know She's Beautiful
TTITLE7=Toby Keith - Should've Been A Cowboy
TTITLE8=Mac Davis - Hooked On Music
TTITLE9=Kathy Mattea - Eighteen Eheels And A Dozen Roses
TTITLE10=Tom T. Hall - Old Dogs Children and Watermelon Wine
TTITLE11=Shania Twain - The Woman In Me (Needs The Man In You)
TTITLE12=Hank Williams - Jambalaya (On The Bayou)
EXTD=
EXTT0=
EXTT1=
EXTT2=
EXTT3=
EXTT4=
EXTT5=
EXTT6=
EXTT7=
EXTT8=
EXTT9=
EXTT10=
EXTT11=
EXTT12=
PLAYORDER=
